<?xml version="1.0" encoding="UTF-8"?>
<svg id="Layer_1" data-name="Layer 1" xmlns="http://www.w3.org/2000/svg" xmlns:xlink="http://www.w3.org/1999/xlink" viewBox="0 0 2000 2000">
  <defs>
    <style>
      .cls-1 {
        fill: #fff;
      }

      .cls-2 {
        fill: #ea516f;
      }

      .cls-3 {
        fill: url(#linear-gradient);
      }

      .cls-4 {
        fill: #1d1d1b;
      }
    </style>
    <linearGradient id="linear-gradient" x1="1239.25" y1="1221.62" x2="1239.25" y2="663.91" gradientUnits="userSpaceOnUse">
      <stop offset=".08" stop-color="#f5a996"/>
      <stop offset=".43" stop-color="#f18c72"/>
      <stop offset=".61" stop-color="#ed6e70"/>
      <stop offset=".81" stop-color="#ea516f"/>
    </linearGradient>
  </defs>
  <path class="cls-3" d="m1109.24,694.05s45.85-8.16,56.52-20.1c0,0,43.34-1.88,62.18-10.05,0,0,46.48,8.16,60.92,5.02,0,0,34.54,16.96,60.29,19.47,0,0,24.49,25.75,51.5,29.52,0,0,24.49,33.29,47.1,42.08,0,0,15.7,37.68,36.43,50.87,0,0,8.79,47.1,23.24,59.04,0,0,1.26,48.99,8.79,63.43,0,0-10.05,41.45-6.28,62.81,0,0-15.7,27.63-18.84,61.55,0,0-25.75,26.38-29.52,52.76,0,0-35.8,20.1-45.85,47.1,0,0-35.17,10.05-53.38,31.4,0,0-39.57,5.65-59.04,23.87,0,0-32.24-5.65-63.54,8.79,0,0-28.16-11.93-63.95-8.16,0,0-25.75-23.24-58.41-23.87,0,0-17.59-27.01-50.24-31.4,0,0-13.82-35.8-44.59-47.1,0,0-13.19-38.94-35.17-50.24,0,0-1.26-35.8-18.84-55.9,0,0,5.65-28.26-6.28-58.41,0,0,11.93-32.66,5.02-62.18,0,0,17.59-21.98,19.47-59.04,0,0,24.49-18.84,30.77-51.5,0,0,33.91-20.73,40.82-43.96,0,0,30.15-11.93,50.87-35.8Z"/>
  <g>
    <path class="cls-2" d="m1421.15,1133.04s-11.64,2.41-13.33,13.63c-1.1,7.3,1.17,10.91,2.89,12.55,2.86-.99,4.57-1.48,4.57-1.48,3.2-8.61,9.02-16.5,15.46-23.28-3.47-3.58-9.59-1.42-9.59-1.42Z"/>
    <path class="cls-2" d="m1413.25,1018.77c-.84,1.87.66,8.98.66,8.98,0,0-2.77,3.74-3.62,8.74-.84,5.01,5.25,9.05,5.25,9.05-3.08.36-4.82,3.32-5.49,5.19-.66,1.87-.18,8.74,3.14,9.65s2.47.66,5.43,3.8c2.96,3.14,6.93,1.21,8.5-1.15,1.57-2.35-.42-.72,2.65-7.54s2.47.36,2.47.36c0,0,0,3.56-2.05,9.95-2.05,6.39,1.75,8.26,1.75,8.26,0,0,5.97,3.14,9.04,1.39s4.94-.54,4.94-.54c0,0,5.79,5.13,5.91,6.63.12,1.51.9,3.5,1.87,5.19s.66,2.29,7.66,4.46,1.03,1.93,1.03,1.93c0,0-5.85-2.83-6.51,4.58-.66,7.42,3.5,8.2,3.5,8.2,0,0,1.42.29,2.7-.19,3.2-13.29,11.26-26.16,18-35.19-1.68-1.05-1.94-2.67-1.94-2.67,0,0,1.75-3.08,5.61-5.79s3.62-6.27,2.23-9.77c-1.39-3.5-1.21-10.19-1.21-10.19,0,0-.48-11.22,8.14-14.89,1.92-.82,3.47-1.73,4.74-2.65,1.91-5.96,3.94-11.22,5.77-15.54-.51-2-1.55-4.01-3.52-5.64-6.39-5.31-11.34-1.99-11.34-1.99,0,0-2.41.48-6.93,7.48-4.52,6.99,1.45,11.64,1.45,11.64,0,0,2.41,5.73,1.93,11.04s-2.71,4.58-2.71,4.58c0,0-9.77-10.13-13.33-11.46-3.56-1.33-1.08-3.92-1.08-3.92,0,0,1.45-1.63,3.98-2.65,2.53-1.03,5.73-2.53,6.57-7.48.84-4.94-1.69-6.93-2.77-8.14-1.08-1.21-5.55-1.45-6.75.42-1.21,1.87-3.74,1.99-3.74,1.99,0,0-3.62-5.07-4.76-8.14s-2.23-3.02-4.46-3.02-2.83-2.35-2.83-2.35c0,0-1.51-2.29-2.35-7.66-.84-5.37-7.78-6.33-9.23-6.75s-7.48.42-8.38,4.34c-.91,3.92-1.81,5.73,2.53,10.37,4.34,4.64,7.36,3.5,10.25,3.02s7.72-.48,9.71,1.75,3.5,5.31,5,7.06c1.51,1.75,2.35,3.86.84,7.66-1.51,3.8-.24,9.41.78,11.64,1.03,2.23,6.69,6.57,12.84,10.43,6.15,3.86,5.12,5.67,6.87,8.5,1.75,2.83.3,7.9.84,11.58.54,3.68,1.63,1.51-2.83,4.52-4.46,3.02-6.15,8.02-7.96,8.56-1.81.54-3.44,3.02-3.26,4.94s-.54,9.65-1.03,9.89c-.48.24-.6.3-3.74-6.09-3.14-6.39-9.71.48-9.71.48l-2.47-3.26c5.49-6.15-.6-12.36-.6-12.36,0,0,4.46.66,6.27-.48,1.81-1.15,2.17-6.33.78-11.94-1.39-5.61-8.08-5.97-7.9-6.69s1.69-4.58-.78-11.63c-2.47-7.05-11.04-4.65-12.96-3.56s-3.98,3.2-4.1,9.95c-.12,6.75-1.81,3.02-1.81,3.02,0,0-.12-4.46-3.2-8.92-3.08-4.46-8.86-3.86-8.86-3.86,0,0-4.58-8.98-5.43-7.12Zm25.33,32.56c1.75.6,2.83,2.05,2.83,2.05-.3.12-2.47-.36-3.74-.72-1.27-.36-.84-1.93.9-1.33Z"/>
    <path class="cls-2" d="m1387.2,1166.57c11.21-3.86,3.26-10.25,3.26-10.25,8.2-1.81,14.41-8.62,14.41-8.62,5.79-8.8,2.41-17.07,2.35-17.25-.06-.18-2.83-7.3-6.21-9.23-3.38-1.93-1.21-5.49-1.21-5.49,0,0,1.93-2.65,4.16-4.04,2.23-1.39,6.63.78,11.34-4.22,4.7-5.01,0-11.52,0-11.52,0,0-5.31-2.35-10.19.48-4.88,2.83-3.8,5.13-3.92,11.46-.12,6.33-3.8,5.79-3.8,5.79,0,0-.3-3.56-2.11-5.25-1.81-1.69-3.38-2.53-5.61-1.09-2.23,1.45-1.57,5.07.12,7.3,1.69,2.23,3.56.72,5.91,2.11,2.35,1.39,1.21,4.58,1.21,4.58,0,0-2.89-.84-4.28,1.33-1.39,2.17-2.05,3.38-.96,7.96,1.09,4.58,9.35,5.25,9.35,5.25,0,0,3.32,2.35,3.01,5.31-.3,2.95-2.17,5.07-5.91,7.84-3.74,2.77-11.52,2.59-11.52,2.59-7.3-4.82-10.61,1.45-10.61,1.45,0,0-1.57-5.07-8.44-9.35-6.87-4.28-12.24,5.13-12.24,5.13,0,0-1.15-.24-7.72-5.85-6.57-5.61-4.58-11.76-3.44-16.82,1.15-5.07,5.25-3.74,5.85-8.68.6-4.94,1.57-3.92,2.77-5.43s2.17-1.87,7.05-2.65,6.33-3.44,6.33-3.44c5.61-8.8,0-11.46,0-11.46,0,0-3.62-3.02-10.01.9-6.39,3.92-3.68,8.74-3.8,11.64-.12,2.89-1.99,2.89-1.99,2.89-2.41-2.05-1.99-7.3-1.99-7.3,0,0-.06-6.51.06-10.85.12-4.34,5.79-7.84,5.79-7.84,7.3-9.59,0-18.87,0-18.87,0,0-6.15-6.63-13.09-3.2s-7.06,9.41-7.18,14.41c-.12,5,4.88,8.86,8.68,12.12,3.8,3.26,3.98,13.03,3.32,16.22s1.45,3.38,1.93,7.54c.48,4.16,1.08,2.95-5.25,11.22-6.33,8.26-2.71,18.51-2.71,18.51,0,0,3.62,8.5,10.31,12.3,6.69,3.8,6.39,8.08,6.39,8.08-2.71-3.08-6.51-3.86-11.34-2.65s-2.83,5.79-2.83,5.79c0,0-4.52-8.86-13.15-4.4-8.62,4.46-3.92,7.42-2.53,11.16,1.39,3.74,2.23,5.31,10.55,7.78s10.07,7.12,10.07,7.12c-7.96-4.58-15.62-3.56-15.62-3.56-3.8-2.89-9.11-2.47-9.11-2.47-10.79.12-12.3-2.17-17.85-5.25s-14.53-15.32-14.53-15.32c0,0,1.93.36,4.4-.36,2.47-.72,3.44-3.14,4.4-4.1s6.69-2.29,7.84-5.79c1.15-3.5-.18-.54,6.39-8.56,6.57-8.02.36-9.53.36-9.53,0,0-2.47-.6-6.99.48-4.52,1.09-8.14-1.33-8.14-1.33,0,0,6.27-2.77,11.04-6.15,4.76-3.38,10.07-12.36,10.07-15.08s-1.75-8.2-4.58-10.73c-2.83-2.53-3.68-.66-11.58,2.41-7.9,3.08-9.04,11.16-9.41,13.51-.36,2.35-2.35,8.56-6.69,14.23-4.34,5.67-2.05-.48-2.05-.48,0,0,3.32-8.14,3.5-15.8.18-7.66-8.62-16.82-8.62-16.82,0,0-.06-1.27,1.63-8.74,1.69-7.48,3.2-5.61,5.25-8.14,2.05-2.53,8.38-6.45,8.38-6.45,0,0,5-.42,1.69.96s-9.29,7.12-9.29,7.12c0,0-2.77,3.8,2.47,9.05,5.25,5.25,8.14.18,8.14.18,0,0,.72,1.15,3.98,2.77,3.26,1.63,4.7-.78,8.5-4.64,3.8-3.86-3.26-11.22-5.73-13.45-2.47-2.23.66-5.49,2.83-3.74s-.6.48,4.4,8.5c5.01,8.02,11.76-7.3,11.76-7.3,0,0,3.5-13.33,2.89-16.58-.6-3.26-10.01.84-10.01.84,9.35-13.33,3.2-22.43,3.2-22.43,0,0,1.99-4.7,3.92-8.86s1.81-12.3,1.75-15.14c-.06-2.83,1.27-3.38,3.02-4.88,1.75-1.51,6.03-1.39,8.8-2.17,2.77-.78,4.7-4.52,5.37-6.33.66-1.81.54-6.21-2.95-8.14-3.5-1.93-5.91-.84-9.47,1.57s-2.83,4.94-2.83,10.25-3.5,6.57-3.5,6.57c-4.04-3.62-3.02-8.5-3.08-10.37-.06-1.87,2.53-5.55,3.74-8.08s2.35-8.56,2.23-13.15c-.12-4.58.54-3.92-6.09-13.15-6.63-9.23-8.99-3.2-11.1-.3-2.11,2.89-4.22,9.59-4.28,13.87-.06,4.28,4.04,12.72,8.32,15.86,4.28,3.14,4.4,7.42,4.4,7.42,0,0,.96,5.73,3.5,8.86,2.53,3.14,1.87,3.56,1.75,8.08-.12,4.52-3.68,8.92-3.68,8.92,0,0-2.77-.4-.54-6.03,2.23-5.63.66-9.29.66-9.29,0,0-2.29-5.49-7.66-5.49s-8.2,5.19-7,10.37,6.15,5.25,9.35,7.42c3.2,2.17,3.68,6.09,3.68,6.09l-1.45,3.2c-5.07-2.77-4.82.66-9.95,5.79-4.15,4.15-3.4,15.5-2.96,19.66-1.58-6.97-12.74-28.31-22.55-19.6-10.73,9.53,2.23,24,2.23,24,0,0-14.11-6.51-16.64,5.97-2.53,12.48,11.82,14.83,11.82,14.83-2.83,3.56-3.08,8.68-3.08,8.68-5.25-2.65-6.03.9-6.03.9-11.76-.18-11.28,20.14-11.28,20.14-14.89.18-16.82,2.59-16.82,2.59.66-5.13,1.27-12.3.66-21.11-.6-8.8-5.25-7.84-9.05-8.14s-4.64.42-11.52,6.15c-6.87,5.73-6.51,16.76-6.51,16.76,0,0-1.45-.96-4.16-4.58-2.71-3.62-4.1-9.65-4.1-9.65-4.46-5.13-7.9-.84-7.9-.84,0-.54-2.05-.48-2.05-.48v-5.61c2.11-2.95,1.99-3.8,1.99-3.8.06-5.19,1.57-7.9,1.57-7.9l6.57-6.63s5.25-4.1,7.78-3.68c2.53.42,9.41.18,9.41.18,0,0,7.3-3.68,9.77-10.55,2.47-6.87-1.75-5.55-1.75-5.55,0,0,1.27-2.11-.72-5.37s-6.27-1.75-6.27-1.75c1.33-3.02-2.23-1.87-2.23-1.87,0,0-1.69.72-7.96,3.38s-6.03,7.96-6.03,7.96c0,0,.96,6.03,0,10.61-.96,4.58-3.14,5.31-3.14,5.31l-8.2,7.96s-3.26-2.89-3.92-6.57c-.66-3.68,2.17-6.75,2.29-8.44.12-1.69-2.65-6.63-6.45-8.86-3.8-2.23-8.92-.3-10.49.48-1.57.78-3.92,3.32-2.77,9.59s2.89,7.3,8.74,8.68c5.85,1.39,4.34,1.51,9.11,5.07,4.76,3.56,2.71,6.21,2.71,6.21,0,0-4.04,5.37-3.2,6.57.84,1.21,0,5.55,0,5.55-6.69,3.56-7.3,9.47-7.3,9.47-1.27,12.72,6.75,16.46,10.79,18.75s8.62,3.14,13.93,5.61.18,1.99-2.29,1.27c-2.47-.72-4.95-3.2-11.88-3.5s-9.11,5.37-8.32,11.16c.78,5.79,6.21,7.96,6.21,7.96-1.33,10.43,5.31,10.73,5.31,10.73,0,0,14.11,2.77,13.75-6.33-.36-9.11,3.02-12.72,3.02-12.72,8.68-4.04,5,5.25,5,5.25,0,0-7.48,6.33-4.58,12.48,2.89,6.15,12.54,2.59,12.54,2.59,7.3.96,12.12-4.16,12.12-4.16,4.82,1.03,9.29-2.95,9.29-2.95-1.39,16.52,11.82,13.09,11.82,13.09,3.5,12.84,12.66,5.13,12.66,5.13,0,0,3.14-2.29,5.31.06,2.17,2.35,3.32,6.21,10.01,9.41s6.27,5.91,6.27,5.91c-12.06.48-20.5,12.3-20.62,14.83-.12,2.53-1.09,3.56-5.13,6.69s-6.15.24-9.41,2.35c-3.26,2.11-12.18,2.53-16.94,2.47s-3.2-1.27-8.68-6.03c-5.49-4.76-8.02-4.4-8.02-4.4-3.68-2.35.18-6.45,1.03-9.05.84-2.59,14.35-5.73,6.45-17.25s-13.99-1.57-13.99-1.57c0,0-5.73,10.37-1.51,12.6,4.22,2.23,3.86,8.2,4.28,10.01s.24,5.55-1.15,4.28c-1.39-1.27-3.44-.78-3.44-.78,0,0-5.37,1.39-7.6-1.15-2.23-2.53-9.89-2.89-11.34-3.62s-1.99-3.26-5.49-6.93c-3.5-3.68-2.53-7.66-2.65-11.4-.12-3.74-7.54-8.38-10.19-9.29-2.65-.9-2.59-3.5-3.98-4.04s-5-7.48-5-7.48c0,0-3.76-5.23-.24-11.76,3.51-6.53,4.4-17.97,4.4-17.97,0,0-.36-7.78-3.68-12.42-3.32-4.64-7.12-7.12-8.74-7.06s-3.86,3.02-5.79,6.27-3.62,12.6-3.26,15.2c.36,2.59,5.25,11.52,8.08,13.69s5.43,6.09,5.67,10.43c.24,4.34,2.41,9.35,2.41,9.35,0,0,.3,4.46,2.65,4.46s2.35,1.51,3.92,3.2c1.57,1.69,4.22,2.83,4.22,2.83,6.51,3.86,5.67,6.69,5.67,6.69-9.11.54-8.99-3.92-8.99-3.92,0,0-.9-5.13-9.41-7.18-8.5-2.05-6.94,2.95-9.89,4.52-2.96,1.57-.42,7.06-.42,7.06.12,3.14,2.53,5.01,7.96,6.81,5.43,1.81,7.9-3.08,10.07-3.74s4.34-1.09,8.02-1.09,4.76,4.46,4.76,4.46c0,0,2.05,6.03,5.13,9.23,3.08,3.2,5.91,3.68,10.07,3.74,4.16.06,3.5,3.02,7.48,3.08,3.98.06,9.17,1.99,12.84,1.99s1.93.48,7.06,6.45c5.12,5.97,18.03,5.55,18.03,5.55,0,0,4.28-.18,9.11-1.63,4.82-1.45,1.93-.66,10.73-.66s15.38-11.76,17.49-13.99c2.11-2.23,4.64-3.14,7.84-4.64,3.2-1.51,5.07-1.15,11.34-.9s8.68,2.65,8.68,2.65c-3.44,4.94,1.33,8.56,1.33,8.56l.04.03c15.23-7.58,32.65-11.28,39.7-12.56.2-1.03,1.76-1.01,3.36-.7,8.17-9.51,19.68-16.76,29.92-21.87-2.32-1.16-4.76-.54-4.76-.54Zm-153.01-42.33c-2.08-1.45,2.35-3.44,2.35-3.44,0,0-.27,4.88-2.35,3.44Zm35.28,17.64c-4.16-.9-6.6,0-6.6,0,0,0-4.61,2.08-6.6,1.63-1.99-.45-2.44-1.63-2.44-1.63,0,0,2.17-.9,6.06-.65,3.89.26,7.42-1.52,8.41-1.52s.99-.63,2.35-.81c1.36-.18,2.98,3.89-1.18,2.98Zm15.29,10.04s-8.68-7.06-2.71-10.04c5.97-2.98,2.71,10.04,2.71,10.04Z"/>
  </g>
  <g>
    <rect class="cls-1" x="1233.36" y="663.85" width="1" height="557.84" transform="translate(-19.71 26.37) rotate(-1.21)"/>
    <rect class="cls-1" x="1234.04" y="665.32" width="1" height="556.14" transform="translate(-194.96 334.63) rotate(-14.32)"/>
    <rect class="cls-1" x="1235.29" y="663.57" width="1" height="555.87" transform="translate(-293.16 665.96) rotate(-27.09)"/>
    <rect class="cls-1" x="1236.55" y="665.03" width="1" height="557.35" transform="translate(-317.34 1012.69) rotate(-39.88)"/>
    <rect class="cls-1" x="1239.06" y="663.53" width="1" height="557.22" transform="translate(-260.07 1360.74) rotate(-52.83)"/>
    <rect class="cls-1" x="1238.43" y="663.86" width="1" height="555.29" transform="translate(-134.64 1672.73) rotate(-65.26)"/>
    <rect class="cls-1" x="1238.12" y="663.23" width="1" height="554.03" transform="translate(67.78 1963.67) rotate(-78.36)"/>
    <rect class="cls-1" x="962.2" y="939.44" width="554.1" height="1" transform="translate(-21.68 29.29) rotate(-1.34)"/>
    <rect class="cls-1" x="960.23" y="936.92" width="555.53" height="1" transform="translate(-190.11 327.57) rotate(-14.01)"/>
    <rect class="cls-1" x="957.73" y="935.35" width="556.13" height="1" transform="translate(-288.8 655.46) rotate(-26.72)"/>
    <rect class="cls-1" x="959.46" y="935.04" width="551.4" height="1" transform="translate(-312.96 1000.22) rotate(-39.53)"/>
    <rect class="cls-1" x="957.75" y="937.55" width="552.31" height="1" transform="translate(-258.85 1355.35) rotate(-52.86)"/>
    <rect class="cls-1" x="957.2" y="938.49" width="552.17" height="1" transform="translate(-136.6 1664.34) rotate(-65.19)"/>
    <rect class="cls-1" x="954.27" y="940.69" width="556.13" height="1" transform="translate(60.32 1956.51) rotate(-78.27)"/>
  </g>
  <g>
    <rect class="cls-4" x="721.83" y="856.74" width="15" height="197.42"/>
    <rect class="cls-4" x="686.69" y="849.24" width="180.23" height="15"/>
    <path class="cls-4" d="m751.67,962.04l-2.04-14.86,1.02,7.43-1.03-7.43c.3-.04,30.6-4.48,60.3-24.63,39.28-26.64,59.2-67.04,59.2-120.07h15c0,72.93-36.05,112.49-66.3,132.84-32.56,21.9-64.79,26.54-66.15,26.72Z"/>
    <rect class="cls-4" x="942.99" y="856.74" width="15" height="197.42"/>
    <rect class="cls-4" x="907.86" y="849.24" width="180.23" height="15"/>
    <path class="cls-4" d="m972.83,960.59l-2.04-14.86,1.02,7.43-1.03-7.43c.3-.04,30.6-4.48,60.3-24.63,39.28-26.64,59.2-67.04,59.2-120.07h15c0,72.93-36.05,112.49-66.3,132.84-32.56,21.9-64.79,26.54-66.15,26.72Z"/>
    <rect class="cls-4" x="583.67" y="856.74" width="15" height="189.92"/>
    <rect class="cls-4" x="562.1" y="1039.16" width="93.02" height="15"/>
    <rect class="cls-4" x="531.09" y="849.24" width="91.08" height="15"/>
    <g>
      <path class="cls-4" d="m304.23,1110.88l-12.51-8.28c47.93-72.39,58.84-149.46,59.55-201.36.77-56.52-10.03-96.37-10.14-96.76l14.46-4c.47,1.68,11.42,41.92,10.69,100.45-.43,34.36-4.84,67.89-13.11,99.66-10.36,39.78-26.82,76.89-48.94,110.29Z"/>
      <rect class="cls-4" x="363.92" y="846.88" width="15" height="204.18" transform="translate(-569.26 557.02) rotate(-46.01)"/>
      <rect class="cls-4" x="459.08" y="849.2" width="15" height="204.97"/>
    </g>
    <g>
      <path class="cls-4" d="m1393.79,1109.42l-12.51-8.28c47.93-72.39,58.84-149.46,59.55-201.36.77-56.52-10.03-96.37-10.14-96.76l14.46-4c.47,1.68,11.42,41.92,10.69,100.45-.43,34.36-4.84,67.89-13.11,99.66-10.36,39.78-26.82,76.89-48.94,110.29Z"/>
      <rect class="cls-4" x="1453.48" y="845.42" width="15" height="204.18" transform="translate(-235.45 1340.41) rotate(-46)"/>
      <rect class="cls-4" x="1548.65" y="847.75" width="15" height="204.97"/>
    </g>
  </g>
</svg>